<?xml version="1.0" standalone="no"?>
<!DOCTYPE svg PUBLIC "-//W3C//DTD SVG 20010904//EN"
 "http://www.w3.org/TR/2001/REC-SVG-20010904/DTD/svg10.dtd">
<svg version="1.0" xmlns="http://www.w3.org/2000/svg"
 width="1024.000000pt" height="1024.000000pt" viewBox="0 0 1024.000000 1024.000000"
 preserveAspectRatio="xMidYMid meet">

<g transform="translate(0.000000,1024.000000) scale(0.100000,-0.100000)"
fill="#000000" stroke="none">
<path d="M6028 8153 c7 -3 16 -2 19 1 4 3 -2 6 -13 5 -11 0 -14 -3 -6 -6z"/>
<path d="M6150 8120 c8 -5 22 -9 30 -9 10 0 8 3 -5 9 -27 12 -43 12 -25 0z"/>
<path d="M6270 8082 c8 -5 26 -13 40 -16 17 -5 20 -4 10 2 -8 5 -26 13 -40 16
-17 5 -20 4 -10 -2z"/>
<path d="M6385 8036 c28 -14 55 -25 60 -25 15 0 -56 36 -85 43 -14 3 -2 -5 25
-18z"/>
<path d="M6460 8000 c0 -5 5 -10 11 -10 6 0 38 -14 72 -31 67 -33 83 -64 45
-88 -11 -7 -17 -8 -14 -3 3 5 -7 12 -23 14 -22 3 -37 -3 -60 -24 -27 -26 -44
-57 -23 -45 4 3 13 -2 21 -10 12 -13 11 -14 -10 -8 -13 4 -27 14 -32 21 -10
18 -36 7 -32 -14 2 -9 4 -21 4 -25 1 -5 6 -5 13 -1 7 4 8 3 4 -4 -4 -6 -13 -9
-21 -5 -9 3 -15 -1 -15 -8 0 -8 -5 -6 -13 5 -12 16 -14 16 -30 -2 -10 -11 -26
-19 -35 -17 -9 1 -11 0 -4 -2 6 -3 11 -14 11 -26 -1 -17 -2 -18 -6 -4 -7 27
-22 10 -17 -21 l4 -27 -15 25 c-11 19 -14 21 -15 7 0 -14 -5 -16 -25 -11 -21
5 -25 3 -25 -14 0 -12 -5 -24 -12 -28 -7 -4 -8 -3 -4 4 4 7 2 12 -3 12 -10 0
-15 -14 -12 -32 0 -4 -6 -5 -14 -2 -8 4 -15 1 -15 -6 0 -9 -7 -7 -20 5 -11 10
-23 15 -27 12 -3 -4 -1 -7 5 -7 6 0 9 -7 5 -16 -5 -13 -7 -13 -14 -2 -7 10 -9
10 -9 1 0 -8 -14 -13 -35 -13 -39 0 -39 1 -25 -35 7 -17 7 -24 0 -20 -6 3 -10
1 -10 -6 0 -7 -7 -4 -16 7 -8 10 -13 14 -10 7 8 -16 -15 -22 -39 -10 -19 9
-19 9 -3 -9 16 -19 16 -20 -2 -20 -11 0 -20 5 -20 11 0 5 -4 3 -9 -5 -12 -18
-3 -34 12 -21 8 6 17 4 27 -7 13 -14 12 -15 -4 -9 -11 5 -29 -2 -51 -19 -25
-19 -40 -24 -57 -19 -13 4 -20 4 -15 0 4 -5 0 -19 -8 -32 -9 -13 -13 -29 -9
-35 4 -7 3 -8 -4 -4 -17 10 -15 -4 3 -24 14 -15 12 -16 -13 -12 -18 2 -35 -4
-51 -17 -28 -24 -33 -25 -50 -8 -11 9 -10 7 0 -10 18 -30 33 -29 59 5 20 25
20 25 8 2 -7 -14 -11 -28 -10 -32 1 -5 -3 -8 -8 -8 -5 0 -9 -5 -7 -12 1 -7
-16 -11 -53 -10 -53 1 -53 1 25 -13 272 -50 534 -195 710 -395 17 -19 -12 5
-63 53 -109 102 -177 150 -300 211 -104 53 -209 89 -330 113 -78 16 -158 18
-807 18 -713 0 -720 0 -766 -21 -55 -26 -108 -77 -135 -130 -18 -37 -19 -73
-24 -794 l-5 -755 -5 640 c-2 363 -7 567 -10 471 l-5 -169 -62 -1 c-35 0 -63
-4 -63 -8 0 -4 -8 -5 -17 -2 -13 4 -15 3 -5 -4 8 -5 31 -6 53 -2 38 7 39 7 22
-10 -10 -9 -21 -13 -24 -8 -10 15 -38 -2 -34 -21 2 -10 -3 -18 -11 -18 -10 0
-11 4 -3 13 5 7 6 15 1 18 -5 3 -16 -4 -25 -14 -9 -11 -25 -17 -37 -15 -14 3
-27 -5 -42 -25 -12 -16 -25 -27 -30 -24 -4 3 -11 -2 -14 -10 -3 -9 -10 -13
-15 -10 -5 3 -9 -1 -9 -8 0 -9 -3 -9 -10 2 -9 13 -11 13 -21 0 -8 -12 -9 -11
-4 7 5 18 3 20 -15 16 -12 -3 -26 -17 -32 -32 -9 -21 -12 -23 -15 -8 -3 9 -9
14 -14 11 -6 -3 -17 2 -26 12 -12 16 -12 14 1 -8 18 -31 20 -48 6 -48 -5 0
-10 7 -10 16 0 13 -3 14 -15 4 -8 -7 -21 -10 -29 -7 -17 7 -29 -30 -12 -37 6
-3 1 -4 -12 -2 -30 3 -43 25 -31 48 9 16 7 17 -16 6 -28 -13 -36 -52 -8 -41
10 4 14 2 10 -4 -4 -6 -1 -13 5 -16 7 -3 3 -4 -9 -4 -13 1 -23 5 -23 10 0 4
-5 5 -10 2 -6 -4 -8 -10 -5 -15 3 -4 -6 -3 -19 3 -13 7 -22 15 -20 19 3 5 0 8
-5 8 -19 0 -12 -30 7 -31 10 0 12 -3 4 -6 -6 -2 -9 -10 -6 -16 4 -7 -2 -3 -13
8 -11 11 -19 23 -17 27 3 4 -1 10 -7 14 -8 5 -9 3 -4 -6 6 -10 4 -12 -10 -6
-15 5 -16 4 -5 -9 11 -13 10 -14 -4 -9 -10 4 -16 1 -16 -7 0 -8 -12 -19 -26
-26 -22 -10 -25 -10 -20 4 6 13 3 13 -20 -2 -22 -14 -28 -15 -36 -4 -6 9 -7 5
-2 -12 3 -15 1 -30 -5 -34 -6 -3 -8 -11 -5 -17 4 -7 2 -8 -5 -4 -9 6 -9 11 -1
21 8 10 5 14 -15 19 -14 4 -24 12 -22 19 1 6 -5 10 -13 8 -8 -2 -23 -4 -32 -5
-9 0 -15 -4 -12 -7 2 -4 0 -10 -6 -14 -5 -3 -10 -1 -10 4 0 6 -4 11 -10 11 -5
0 -7 -6 -4 -13 3 -9 -7 -14 -32 -15 -27 -2 -34 0 -28 10 6 10 4 10 -7 2 -8 -6
-23 -14 -33 -18 -16 -5 -17 -4 -6 9 11 13 10 14 -11 7 -18 -7 -26 -20 -31 -53
-4 -24 -12 -45 -18 -47 -6 -2 -11 -56 -12 -130 -2 -70 -5 60 -8 288 -3 228 -5
-408 -5 -1415 l0 -1830 31 -65 c51 -108 130 -170 239 -189 38 -6 464 -11 1170
-13 1012 -3 1124 -1 1265 15 322 37 574 102 830 215 805 353 1347 1082 1479
1987 21 145 45 502 39 590 l-3 50 -105 5 -105 5 -27 -42 c-55 -86 -171 -141
-274 -130 -42 4 -106 27 -155 54 -3 2 -53 -52 -111 -119 -139 -161 -414 -431
-553 -541 -177 -142 -415 -297 -478 -313 -21 -5 -34 -18 -47 -49 -25 -58 -77
-114 -125 -136 -60 -28 -151 -25 -208 5 -25 14 -47 23 -49 20 -3 -2 -142 -44
-309 -94 -455 -134 -595 -184 -834 -300 -418 -204 -747 -492 -1004 -880 -53
-80 -116 -187 -141 -238 l-45 -92 -60 0 c-81 0 -166 11 -160 21 3 4 0 11 -6
15 -8 4 -9 3 -5 -4 4 -7 1 -12 -9 -12 -9 0 -14 4 -10 9 3 5 0 13 -6 17 -8 4
-9 3 -5 -4 10 -17 -10 -15 -46 4 -21 11 -27 18 -18 24 8 5 9 9 1 14 -6 4 -15
5 -19 2 -5 -3 -9 1 -9 9 0 11 6 11 31 -2 26 -14 29 -14 19 -1 -7 8 -11 17 -9
19 2 2 -9 4 -25 5 -16 1 -29 -4 -30 -10 0 -9 -19 27 -23 44 -4 14 -25 43 -26
34 0 -6 3 -14 7 -18 10 -10 13 -37 3 -31 -17 11 -37 90 -29 118 17 64 249 339
468 557 471 468 851 648 1884 896 171 41 315 74 319 74 4 0 8 16 8 35 0 89 65
187 146 221 78 33 203 8 266 -53 l26 -25 104 63 c292 178 547 389 872 717 76
78 135 145 131 151 -27 45 -21 191 11 254 26 49 86 107 138 135 44 23 63 27
141 27 78 0 97 -4 141 -27 86 -45 152 -134 169 -230 l7 -38 89 0 89 0 0 48 c0
125 -44 434 -81 572 -125 469 -345 868 -644 1165 -142 142 -366 316 -413 321
-13 1 -27 6 -30 10 -4 4 2 4 13 1 37 -12 -21 25 -144 90 -121 65 -131 69 -131
53z m216 -111 c6 -11 -10 -12 -20 -2 -4 4 -15 8 -23 8 -9 0 -18 6 -20 12 -4
10 3 10 26 2 17 -6 34 -15 37 -20z m-121 -29 c-3 -5 -12 -10 -18 -10 -7 0 -6
4 3 10 19 12 23 12 15 0z m110 -8 c-3 -3 -11 0 -18 7 -9 10 -8 11 6 5 10 -3
15 -9 12 -12z m-167 -37 c-3 -3 -9 2 -12 12 -6 14 -5 15 5 6 7 -7 10 -15 7
-18z m-401 -239 c0 -8 -9 -14 -19 -13 -21 1 -24 13 -5 20 20 9 24 8 24 -7z
m-172 -146 c-3 -5 -10 -10 -16 -10 -5 0 -9 5 -9 10 0 6 7 10 16 10 8 0 12 -4
9 -10z m-45 -10 c-13 -8 -13 -10 1 -10 9 0 19 -7 23 -15 5 -13 2 -13 -19 1
-29 19 -32 34 -7 34 14 0 15 -2 2 -10z m-47 -116 c1 -4 -6 -8 -15 -10 -14 -2
-15 1 -5 17 11 17 14 16 20 -7z m678 -541 c13 -16 12 -17 -3 -4 -10 7 -18 15
-18 17 0 8 8 3 21 -13z m-580 -98 c16 -9 39 -30 49 -48 19 -31 20 -57 20 -894
0 -783 -1 -863 -16 -878 -9 -9 -23 -14 -32 -10 -48 18 -110 27 -174 23 -94 -5
-180 -44 -265 -123 l-63 -57 0 955 0 954 23 34 c37 55 54 59 250 59 141 0 184
-3 208 -15z m-1966 -205 c3 -5 1 -10 -4 -10 -6 0 -11 5 -11 10 0 6 2 10 4 10
3 0 8 -4 11 -10z m-138 -75 c0 -8 -4 -12 -9 -9 -5 3 -6 10 -3 15 9 13 12 11
12 -6z m-52 -15 c3 -6 -1 -7 -9 -4 -18 7 -21 14 -7 14 6 0 13 -4 16 -10z
m-455 -165 c7 -9 8 -15 2 -15 -5 0 -12 7 -16 15 -3 8 -4 15 -2 15 2 0 9 -7 16
-15z m-216 -18 c-2 -7 -15 -13 -27 -14 -21 -2 -21 -1 3 12 31 18 30 18 24 2z
m97 -14 c-8 -15 -10 -15 -11 -2 0 17 10 32 18 25 2 -3 -1 -13 -7 -23z m-121
-21 c0 -5 -7 -9 -15 -9 -8 0 -12 4 -9 9 3 4 9 8 15 8 5 0 9 -4 9 -8z m2123
-315 c65 -42 62 -8 62 -686 l0 -614 -200 -48 c-110 -26 -242 -58 -292 -72
l-93 -26 0 680 c0 732 0 727 52 761 37 24 58 26 258 25 159 -2 190 -5 213 -20z
m-2356 -129 c-3 -8 -6 -5 -6 6 -1 11 2 17 5 13 3 -3 4 -12 1 -19z m1609 -652
l34 -34 -2 -342 -3 -343 -140 -57 c-165 -67 -323 -145 -418 -206 -37 -24 -72
-44 -78 -44 -6 0 -9 168 -7 494 l3 494 25 27 c14 15 34 31 45 35 11 5 130 9
264 9 l243 1 34 -34z m1251 -1332 c-3 -3 -12 -4 -19 -1 -8 3 -5 6 6 6 11 1 17
-2 13 -5z m-64 -11 c-7 -2 -19 -2 -25 0 -7 3 -2 5 12 5 14 0 19 -2 13 -5z
m-113 -14 c-36 -4 -175 -7 -309 -8 -252 -1 -293 -6 -166 -20 6 -1 2 -6 -8 -12
-9 -6 -15 -15 -11 -20 3 -5 0 -17 -8 -26 -9 -12 -9 -15 0 -9 6 4 12 3 12 -3 0
-5 -5 -11 -10 -13 -6 -2 -12 -13 -13 -25 -1 -18 -4 -20 -16 -10 -8 7 -12 8 -9
2 6 -10 -23 -43 -32 -36 -3 2 -11 -7 -17 -20 -7 -13 -13 -20 -13 -15 0 5 -6 3
-13 -3 -8 -6 -18 -7 -23 -3 -4 4 -2 -2 6 -12 8 -11 10 -17 4 -13 -6 3 -17 -4
-24 -17 -11 -22 -42 -40 -62 -37 -4 0 -4 -7 -1 -16 5 -12 3 -14 -7 -8 -9 6
-12 4 -8 -6 3 -8 -4 -23 -15 -34 -11 -11 -17 -15 -14 -10 3 6 1 17 -4 25 -9
13 -10 13 -8 0 3 -33 -1 -42 -18 -36 -10 4 -14 4 -10 0 11 -11 -23 -43 -39
-37 -8 3 -14 0 -14 -7 0 -6 5 -8 10 -5 6 3 10 2 10 -3 0 -6 -7 -13 -16 -16
-23 -9 -27 -8 -21 7 3 8 -1 14 -9 14 -9 0 -13 -6 -9 -14 3 -8 -2 -24 -10 -36
-8 -12 -15 -16 -15 -9 0 8 -5 10 -12 6 -7 -4 -28 -9 -47 -11 -19 -2 -40 -8
-47 -14 -6 -5 -19 -7 -28 -3 -12 5 -15 2 -9 -11 5 -15 2 -17 -16 -12 -19 5
-20 3 -9 -10 12 -14 11 -15 -9 -5 -12 7 -28 12 -35 11 -10 0 -10 -2 0 -6 21
-8 13 -20 -13 -20 -14 0 -25 4 -25 9 0 5 5 6 12 2 6 -4 8 -3 5 4 -9 13 -30 10
-51 -7 -13 -11 -16 -11 -16 0 0 9 -3 10 -8 3 -4 -6 -20 -13 -35 -16 -22 -4
-27 -2 -22 10 4 11 2 12 -8 4 -14 -12 -55 -11 -75 2 -7 4 -12 1 -12 -9 0 -9
-4 -14 -9 -11 -19 12 -83 18 -76 7 3 -6 1 -11 -4 -11 -6 0 -11 5 -11 10 0 6
-5 10 -11 10 -5 0 -7 -6 -4 -12 4 -7 -2 -3 -14 10 -13 15 -22 19 -27 11 -5 -8
-9 -7 -15 2 -6 10 -13 10 -33 1 -19 -8 -27 -8 -36 3 -6 8 -9 19 -5 25 3 5 1
10 -6 10 -8 0 -7 5 2 18 12 15 12 16 -2 4 -13 -10 -19 -9 -29 3 -13 16 -35 21
-25 6 3 -5 1 -12 -5 -16 -14 -9 -12 18 3 34 10 11 10 13 0 7 -8 -5 -13 -1 -13
11 -1 12 -21 -4 -67 -52 -46 -49 -55 -57 -32 -25 19 25 88 99 154 166 194 195
354 307 493 345 61 17 115 18 637 16 314 -1 541 -5 505 -8z m-1641 -520 c-16
-10 -23 -4 -14 10 3 6 11 8 17 5 6 -4 5 -9 -3 -15z"/>
<path d="M3925 3171 c-3 -5 -2 -12 3 -15 5 -3 9 1 9 9 0 17 -3 19 -12 6z"/>
<path d="M4030 3150 c0 -5 7 -7 15 -4 8 4 15 8 15 10 0 2 -7 4 -15 4 -8 0 -15
-4 -15 -10z"/>
<path d="M5905 7480 c3 -5 11 -10 16 -10 6 0 7 5 4 10 -3 6 -11 10 -16 10 -6
0 -7 -4 -4 -10z"/>
<path d="M5760 7366 c0 -2 7 -6 15 -10 8 -3 15 -1 15 4 0 6 -7 10 -15 10 -8 0
-15 -2 -15 -4z"/>
<path d="M5708 7263 c7 -3 16 -2 19 1 4 3 -2 6 -13 5 -11 0 -14 -3 -6 -6z"/>
<path d="M5533 7253 c20 -2 54 -2 75 0 20 2 3 4 -38 4 -41 0 -58 -2 -37 -4z"/>
<path d="M2832 6745 c0 -16 2 -22 5 -12 2 9 2 23 0 30 -3 6 -5 -1 -5 -18z"/>
<path d="M3670 6371 c0 -5 7 -11 15 -15 8 -3 15 -1 15 3 0 5 -7 11 -15 15 -8
3 -15 1 -15 -3z"/>
<path d="M3366 6268 c3 -4 9 -8 15 -8 5 0 9 4 9 8 0 5 -7 9 -15 9 -8 0 -12 -4
-9 -9z"/>
<path d="M3240 6229 c0 -5 5 -7 10 -4 6 3 10 8 10 11 0 2 -4 4 -10 4 -5 0 -10
-5 -10 -11z"/>
<path d="M3135 6190 c-3 -5 -1 -10 4 -10 6 0 11 5 11 10 0 6 -2 10 -4 10 -3 0
-8 -4 -11 -10z"/>
<path d="M2890 2975 c0 -8 4 -15 10 -15 5 0 7 7 4 15 -4 8 -8 15 -10 15 -2 0
-4 -7 -4 -15z"/>
<path d="M3040 2810 c-9 -6 -10 -10 -3 -10 6 0 15 5 18 10 8 12 4 12 -15 0z"/>
<path d="M3118 2753 c7 -3 16 -2 19 1 4 3 -2 6 -13 5 -11 0 -14 -3 -6 -6z"/>
</g>
</svg>
